<svg xmlns="http://www.w3.org/2000/svg" xml:space="preserve" width="4mm" height="4mm" version="1.1"
    style="shape-rendering:geometricPrecision; text-rendering:geometricPrecision; image-rendering:optimizeQuality; fill-rule:evenodd; clip-rule:evenodd"
    viewBox="0 0 2 2" xmlns:xlink="http://www.w3.org/1999/xlink">
    <defs>
        <style type="text/css">
            .fil0 {
                fill: white
            }
        </style>
    </defs>
    <g id="Layer_x0020_1">
        <metadata id="CorelCorpID_0Corel-Layer" />
        <g id="_1374629529872">
            <g>
                <path class="fil0"
                    d="M0.07 0.61c0.04,0 0.07,-0.03 0.07,-0.07l0 -0.3 0.45 0.45c0.01,0.01 0.03,0.02 0.05,0.02 0.02,0 0.04,-0.01 0.05,-0.02 0.03,-0.03 0.03,-0.07 0,-0.1l-0.45 -0.45 0.3 0c0.04,0 0.07,-0.03 0.07,-0.07 0,-0.04 -0.03,-0.07 -0.07,-0.07l-0.47 0c-0.04,0 -0.07,0.03 -0.07,0.07l0 0.47c0,0.04 0.03,0.07 0.07,0.07z" />
                <path class="fil0"
                    d="M1.94 1.4c-0.04,0 -0.07,0.03 -0.07,0.07l0 0.3 -0.46 -0.46c-0.03,-0.03 -0.07,-0.03 -0.1,0 -0.03,0.03 -0.03,0.07 0,0.1l0.46 0.46 -0.3 0c-0.04,0 -0.07,0.03 -0.07,0.07 0,0.04 0.03,0.07 0.07,0.07l0.47 0c0.04,0 0.07,-0.03 0.07,-0.07l0 -0.47c0,-0.04 -0.03,-0.07 -0.07,-0.07z" />
                <path class="fil0"
                    d="M0.6 1.3l-0.46 0.46 0 -0.3c0,-0.04 -0.03,-0.07 -0.07,-0.07 -0.04,0 -0.07,0.03 -0.07,0.07l0 0.47c0,0.04 0.03,0.07 0.07,0.07l0.47 0c0.04,0 0.07,-0.03 0.07,-0.07 0,-0.04 -0.03,-0.07 -0.07,-0.07l-0.3 0 0.46 -0.46c0.03,-0.03 0.03,-0.07 0,-0.1 -0.03,-0.03 -0.07,-0.03 -0.1,0z" />
                <path class="fil0"
                    d="M1.94 0l-0.47 0c-0.04,0 -0.07,0.03 -0.07,0.07 0,0.04 0.03,0.07 0.07,0.07l0.3 -0 -0.45 0.45c-0.03,0.03 -0.03,0.07 0,0.1 0.01,0.01 0.03,0.02 0.05,0.02 0.02,0 0.04,-0.01 0.05,-0.02l0.45 -0.45 0 0.3c0,0.04 0.03,0.07 0.07,0.07 0.04,0 0.07,-0.03 0.07,-0.07l0 -0.47c0,-0.04 -0.03,-0.07 -0.07,-0.07z" />
            </g>
        </g>
    </g>
</svg>