<svg id="svg" xmlns="http://www.w3.org/2000/svg" xml:space="preserve" width="4mm" height="4mm" version="1.1" style="shape-rendering:geometricPrecision; text-rendering:geometricPrecision; image-rendering:optimizeQuality; fill-rule:evenodd; clip-rule:evenodd"
viewBox="0 0 1.53 1.53"
 xmlns:xlink="http://www.w3.org/1999/xlink">
 <defs>
  <style type="text/css">
    .fil2 {fill:#B2B2B2}
    .fil9 {fill:#B4B4B4}
    .fil4 {fill:#B5B5B5}
    .fil3 {fill:#B6B6B6}
    .fil14 {fill:#B7B7B7}
    .fil8 {fill:#B8B8B8}
    .fil5 {fill:#B9B9B9}
    .fil6 {fill:#BABABA}
    .fil13 {fill:#BBBBBB}
    .fil10 {fill:#BCBCBC}
    .fil7 {fill:#BDBDBD}
    .fil12 {fill:silver}
    .fil11 {fill:#C1C1C1}
    .fil1 {fill:#FEFEFE}
    .fil0 {fill:white}
  </style>
 </defs>
 <g id="Layer_x0020_1">
  <metadata id="CorelCorpID_0Corel-Layer"/>
  <g id="_1374424103008">
   <path class="fil0" d="M0.77 0.49c-0.03,0 -0.05,0.02 -0.05,0.04 -0,0.01 -0,0.03 -0,0.04l0 0.22c-0,0 -0,0 -0.01,0.01 -0.02,0.01 -0.03,0.03 -0.05,0.04 -0.02,0.01 -0.03,0.03 -0.05,0.04l-0.13 0.1c-0.01,0.01 -0.02,0.01 -0.03,0.02 -0.02,0.02 -0.02,0.05 -0.01,0.07 0.01,0.02 0.04,0.03 0.06,0.02 0.01,-0 0.02,-0.01 0.03,-0.02l0.13 -0.1c0.02,-0.01 0.03,-0.03 0.05,-0.04l0.04 -0.03c0,-0 0.01,-0.01 0.01,-0.01 0,0 0.02,0.02 0.03,0.02l0.18 0.14c0.01,0.01 0.04,0.03 0.05,0.04 0.03,0.01 0.05,-0.01 0.06,-0.02 0.02,-0.02 0.01,-0.05 -0.01,-0.07 -0.01,-0.01 -0.18,-0.15 -0.21,-0.16 -0.02,-0.01 -0.03,-0.03 -0.05,-0.04 -0,-0 -0,-0 -0.01,-0.01l-0 -0.17c0,-0.02 0,-0.08 -0,-0.09 -0.01,-0.02 -0.03,-0.04 -0.05,-0.04z"/>
   <path class="fil0" d="M0.29 1.32c0,-0 0.05,-0.06 0.06,-0.06 0.02,-0.02 0.04,-0.04 0.06,-0.06 0.01,-0.01 0.02,-0.02 0.02,-0.04 0.01,-0.03 -0.02,-0.06 -0.05,-0.06 -0.02,-0 -0.04,-0 -0.06,-0 -0.04,0 -0.08,0 -0.12,0 -0.02,0 -0.05,-0 -0.06,0 -0.02,0 -0.03,0.01 -0.03,0.02 -0.02,0.03 -0.01,0.06 0.02,0.08 0.02,0.01 0.03,0.01 0.05,0.01 0.01,0 0.05,-0 0.06,0 -0,0 -0.12,0.12 -0.12,0.12 -0.01,0.01 -0.02,0.02 -0.02,0.04 -0,0.02 0,0.03 0.01,0.04 0.01,0.01 0.02,0.02 0.04,0.02 0.02,0 0.04,0 0.06,0 0.04,0 0.08,0 0.12,0 0.04,0 0.07,0.01 0.09,-0.03 0.01,-0.01 0.01,-0.03 0.01,-0.05 -0,-0.01 -0.02,-0.03 -0.03,-0.03 -0.02,-0.01 -0.03,-0.01 -0.05,-0.01 -0.01,0 -0.05,0 -0.06,-0z"/>
   <path class="fil0" d="M1.35 1.27c0,-0 0.06,-0.06 0.06,-0.06 0.01,-0.01 0.02,-0.02 0.02,-0.04 0,-0.04 -0.03,-0.07 -0.06,-0.06 -0.02,0 -0.03,0.01 -0.04,0.02 -0.01,0.01 -0.06,0.06 -0.06,0.06l-0.06 -0.06c-0.01,-0.01 -0.02,-0.02 -0.04,-0.02 -0.02,-0 -0.04,0.01 -0.05,0.02 -0.01,0.01 -0.02,0.03 -0.02,0.05 0,0.02 0.01,0.03 0.02,0.04l0.05 0.05c0,0 0.01,0.01 0.02,0.02 -0,0 -0.06,0.06 -0.06,0.06 -0.01,0.01 -0.02,0.02 -0.02,0.04 -0,0.04 0.03,0.07 0.06,0.06 0.02,-0 0.03,-0.01 0.04,-0.02 0,-0 0.06,-0.06 0.06,-0.06 0,0 0.06,0.06 0.06,0.06 0.01,0.01 0.02,0.02 0.04,0.02 0.02,0 0.04,-0.01 0.05,-0.02 0.01,-0.01 0.02,-0.03 0.02,-0.05 -0,-0.02 -0.01,-0.03 -0.02,-0.04 -0.01,-0.01 -0.06,-0.06 -0.06,-0.06z"/>
   <path class="fil0" d="M0.77 0.19c-0,-0 -0.01,-0.01 -0.01,-0.01l-0.06 -0.06c-0.05,-0.04 -0.11,0 -0.09,0.06 0,0.01 0.01,0.02 0.02,0.03l0.07 0.07c0,0 0.01,0.01 0.01,0.01 0.01,0.01 0.01,0 0.01,0.02 -0,0.02 0,0.03 0,0.05 0,0.01 -0,0.03 0,0.04 0.02,0.05 0.09,0.05 0.11,0 0,-0.01 0,-0.03 0,-0.04 0,-0.02 0,-0.03 0,-0.05 0,-0.01 -0,-0.01 0.01,-0.02l0.04 -0.04c0.02,-0.02 0.03,-0.03 0.05,-0.05 0.01,-0.01 0.01,-0.01 0.02,-0.03 0,-0.01 0,-0.03 -0,-0.04 -0.02,-0.04 -0.06,-0.05 -0.09,-0.02 -0.01,0.01 -0.02,0.02 -0.02,0.02 -0.01,0.01 -0.02,0.02 -0.02,0.02l-0.02 0.02z"/>
   <path class="fil0" d="M0.76 1.13c0,0.01 0.01,0.01 0.02,0 0,-0 0,-0.02 0,-0.03 -0,-0.01 -0.01,-0.01 -0.02,-0 -0,0 -0,0.02 -0,0.03z"/>
   <path class="fil0" d="M0.76 1.07c0,0.01 0.01,0.01 0.02,0 0,-0 0,-0.02 0,-0.03 -0,-0.01 -0.01,-0.01 -0.02,-0 -0,0 -0,0.02 -0,0.03z"/>
   <path class="fil0" d="M0.77 1.19c0,0.01 0.01,0.01 0.02,0 0,-0 0,-0.02 0,-0.03 -0,-0.01 -0.01,-0.01 -0.02,-0 -0,0 -0,0.02 -0,0.03z"/>
   <path class="fil0" d="M0.86 0.75c-0,0 -0.02,0.01 -0.02,0.01 -0.01,0.01 -0,0.02 0.01,0.02 0,-0 0.02,-0.01 0.02,-0.01 0.01,-0.01 0,-0.02 -0.01,-0.02z"/>
   <path class="fil0" d="M1.06 0.6c-0,0 -0.02,0.01 -0.02,0.01 -0.01,0.01 0,0.02 0.01,0.02 0,-0 0.02,-0.01 0.02,-0.01 0.01,-0.01 0,-0.02 -0.01,-0.02z"/>
   <path class="fil0" d="M0.96 0.68c-0,0 -0.02,0.01 -0.02,0.01 -0.01,0.01 0,0.02 0.01,0.02 0,-0 0.02,-0.01 0.02,-0.01 0.01,-0.01 -0,-0.02 -0.01,-0.02z"/>
   <path class="fil0" d="M0.91 0.71c-0,0 -0.02,0.01 -0.02,0.01 -0.01,0.01 -0,0.02 0.01,0.02 0,-0 0.02,-0.01 0.02,-0.01 0.01,-0.01 0,-0.02 -0.01,-0.02z"/>
   <path class="fil0" d="M1.01 0.64c-0,0 -0.02,0.01 -0.02,0.01 -0.01,0.01 0,0.02 0.01,0.02 0,-0 0.02,-0.01 0.02,-0.01 0.01,-0.01 0,-0.02 -0.01,-0.02z"/>
   <path class="fil0" d="M0.49 0.59c-0,0 -0.01,0 -0.01,0.01 0,0.01 0.01,0.01 0.02,0.02 0,0 0.01,0.01 0.01,0 0,-0 0.01,-0 0.01,-0.01 0,-0.01 -0.01,-0.01 -0.02,-0.02 -0,-0 -0.01,-0.01 -0.01,-0z"/>
   <path class="fil0" d="M0.58 0.67c-0,0 -0.01,0.01 -0.01,0.01 0,0.01 0.01,0.01 0.02,0.02 0.01,0.01 0.02,-0 0.02,-0.01 -0,-0.01 -0.01,-0.01 -0.02,-0.02 -0,-0 -0.01,-0.01 -0.01,-0z"/>
   <path class="fil0" d="M0.54 0.63c-0,0 -0.01,0.01 -0.01,0.01 0,0.01 0.01,0.01 0.02,0.02 0.01,0.01 0.02,0 0.02,-0.01 -0,-0.01 -0.01,-0.01 -0.02,-0.02 -0,-0 -0.01,-0.01 -0.01,-0z"/>
   <path class="fil0" d="M0.77 0.91c-0.01,0 -0.01,0.01 -0.01,0.02 0,0 -0,0.01 0,0.01 0,0 0.01,0.01 0.01,0 0.01,-0 0.01,-0.01 0.01,-0.02 -0,-0 0,-0.01 -0,-0.01 -0,-0 -0.01,-0.01 -0.01,-0z"/>
   <path class="fil0" d="M0.76 1.01c0,0.01 0.01,0.01 0.02,0 0,-0 0,-0.02 0,-0.03 -0,-0.01 -0.01,-0.01 -0.02,-0 -0,0 -0,0.03 -0,0.03z"/>
   <path class="fil0" d="M0.63 0.71c-0.01,0 -0.01,0.01 0,0.02 0.01,0.01 0.01,0.01 0.02,0.01 0,-0 0.01,-0.01 0.01,-0.01 -0,-0 -0,-0.01 -0.01,-0.01 -0,-0 -0.01,-0.01 -0.01,-0.01 -0,-0 -0.01,-0.01 -0.01,-0z"/>
   <path class="fil0" d="M0.68 0.75c-0.01,0 -0.01,0.01 -0,0.02 0.01,0.01 0.01,0.01 0.02,0.01 0,-0 0.01,-0 0.01,-0.01 0,-0.01 -0,-0.01 -0.01,-0.01 -0.01,-0.01 -0.01,-0.01 -0.02,-0.01z"/>
   <path class="fil0" d="M0.46 0.56c-0.01,0 -0.01,0.01 -0.01,0.02 0,0 0.01,0.01 0.02,0.01 0.01,-0 0,-0.03 -0.01,-0.02z"/>
   <path class="fil0" d="M1.09 0.58c-0.02,0.01 -0.01,0.03 0,0.02 0,-0 0.01,-0.01 0.01,-0.01 -0,-0.01 -0.01,-0.01 -0.01,-0.01z"/>
   <path class="fil2" d="M0.01 1.44c0,-0 0,-0 -0,-0 0,0 -0,0 0,0z"/>
   <path class="fil2" d="M0.01 0.1c-0,0 -0,-0 -0,0 0,0 0,0 0,-0z"/>
   <path class="fil2" d="M0.1 0c-0,0 -0,-0 -0,0 0,0 0,0 0,-0z"/>
   <path class="fil3" d="M0.1 1.53c0,-0 0,-0 -0,-0 0,0 -0,0 0,0z"/>
   <path class="fil2" d="M1.53 1.44c-0,0 -0,-0 -0,0 0,0 0,0 0,-0z"/>
   <polygon class="fil4" points="1.53,0.11 1.53,0.11 "/>
   <polygon class="fil4" points="0,0.11 0,0.11 "/>
   <polygon class="fil2" points="1.44,0 1.44,0 "/>
   <polygon class="fil2" points="0.11,-0 0.11,0 "/>
   <polygon class="fil5" points="0.11,0 0.11,0 "/>
   <polygon class="fil3" points="1.43,0 1.43,0 "/>
   <polygon class="fil6" points="1.43,0 1.43,0 "/>
   <polygon class="fil5" points="0.1,0 0.1,0 "/>
   <polygon class="fil5" points="1.43,0 1.43,0 "/>
   <polygon class="fil3" points="0,0.1 0,0.1 "/>
   <polygon class="fil2" points="1.53,0.1 1.53,0.1 "/>
   <polygon class="fil7" points="0,0.1 0,0.1 "/>
   <polygon class="fil8" points="0,1.43 0,1.42 "/>
   <polygon class="fil9" points="1.53,1.42 1.53,1.43 "/>
   <polygon class="fil10" points="0,1.43 0,1.43 "/>
   <polygon class="fil8" points="1.53,1.43 1.53,1.43 "/>
   <polygon class="fil11" points="0,1.43 0,1.43 "/>
   <polygon class="fil7" points="0,1.43 0,1.43 "/>
   <polygon class="fil5" points="1.53,1.43 1.53,1.43 "/>
   <polygon class="fil5" points="1.53,0.1 1.53,0.1 "/>
   <polygon class="fil12" points="0,0.1 0,0.1 "/>
   <polygon class="fil13" points="1.53,0.11 1.53,0.1 "/>
   <polygon class="fil5" points="0,0.11 0,0.11 "/>
   <polygon class="fil3" points="1.44,1.53 1.44,1.53 "/>
   <polygon class="fil7" points="0.1,1.53 0.1,1.53 "/>
   <polygon class="fil7" points="1.43,1.53 1.43,1.53 "/>
   <polygon class="fil12" points="0.1,1.53 0.1,1.53 "/>
   <polygon class="fil12" points="1.43,1.53 1.43,1.53 "/>
   <polygon class="fil13" points="0.11,1.53 0.11,1.53 "/>
   <polygon class="fil5" points="1.43,1.53 1.43,1.53 "/>
   <polygon class="fil14" points="0.11,1.53 0.11,1.53 "/>
   <polygon class="fil9" points="1.43,1.53 1.42,1.53 "/>
  </g>
 </g>
</svg>
