<svg xmlns="http://www.w3.org/2000/svg" xml:space="preserve" width="4mm" height="4mm" version="1.1" style="shape-rendering:geometricPrecision; text-rendering:geometricPrecision; image-rendering:optimizeQuality; fill-rule:evenodd; clip-rule:evenodd"
viewBox="0 0 2.18 2.17"
 xmlns:xlink="http://www.w3.org/1999/xlink">
 <defs>
  <style type="text/css">
    .fil0 {fill:white}
  </style>
 </defs>
 <g id="Layer_x0020_1">
  <metadata id="CorelCorpID_0Corel-Layer"/>
  <g id="_1376111552496">
   <path class="fil0" d="M0.01 0.48l2.16 0c0.03,-0.26 -0.04,-0.47 -0.3,-0.48 -0.25,-0.01 -0.53,-0 -0.78,-0 -0.26,0 -0.53,-0.01 -0.78,0 -0.25,0.01 -0.33,0.22 -0.3,0.48z"/>
   <polygon class="fil0" points="0.76,2.16 1.42,2.16 1.42,1.68 0.76,1.68 0.76,2.1 "/>
   <path class="fil0" d="M1.55 2.16c0.16,-0 0.38,0.03 0.49,-0.05 0.13,-0.09 0.13,-0.21 0.13,-0.42l-0.62 0 -0 0.47z"/>
   <path class="fil0" d="M0.63 2.16l-0 -0.47 -0.62 0c-0,0.21 -0,0.33 0.13,0.42 0.12,0.08 0.33,0.05 0.49,0.05z"/>
   <polygon class="fil0" points="0,1.02 0.63,1.02 0.64,0.61 0.01,0.6 "/>
   <polygon class="fil0" points="0.77,1.55 1.41,1.55 1.41,1.16 0.77,1.15 "/>
   <polygon class="fil0" points="0.77,1.01 1.41,1.01 1.41,0.62 0.77,0.61 "/>
   <polygon class="fil0" points="2.17,1.55 2.17,1.14 1.56,1.14 1.55,1.55 "/>
   <polygon class="fil0" points="0,1.55 0.62,1.55 0.62,1.15 0,1.15 "/>
   <polygon class="fil0" points="2.17,1.01 2.17,0.61 1.55,0.61 1.56,1.01 "/>
   <path class="fil0" d="M0.77 0.61l0.64 0 -0 0.4 -0.64 -0 -0 -0.4zm-0.02 0.41l0.67 0 0 -0.42 -0.67 -0 -0 0.42z"/>
   <path class="fil0" d="M0.77 1.15l0.64 0 0 0.4 -0.64 -0 0 -0.4zm-0.02 0.41l0.67 0 0 -0.42 -0.67 -0 -0 0.42z"/>
   <path class="fil0" d="M2.17 1.01l-0.62 0 -0 -0.4 0.62 0c-0.02,-0.03 -0.28,-0.01 -0.31,-0.01 -0.09,0 -0.23,-0.01 -0.32,0l-0 0.42c0.11,0.01 0.41,0 0.56,0 0.01,0 0.04,0 0.04,0 0.04,-0.01 0.02,0 0.03,-0.01z"/>
   <path class="fil0" d="M0 1.55c0.01,0.02 -0,0.01 0.02,0.01 0.01,0 0.03,0 0.04,0 0.03,-0 0.06,-0 0.09,-0l0.48 -0 0 -0.42 -0.6 -0c-0.04,0.01 -0.02,-0 -0.03,0.01l0.62 -0 0 0.4 -0.62 -0z"/>
   <path class="fil0" d="M0.63 2.16c0.03,-0.03 0.01,-0.46 0.01,-0.48 -0.1,-0.01 -0.22,-0 -0.32,-0 -0.05,0 -0.11,0 -0.16,-0 -0.03,-0 -0.13,-0.01 -0.15,0.01l0.62 0 0 0.47z"/>
   <path class="fil0" d="M2.17 1.55l-0.62 -0 0.01 -0.41c-0.03,0.01 -0.02,-0.01 -0.02,0.04l0 0.38 0.6 0c0.06,-0 0.01,0 0.03,-0.01z"/>
   <path class="fil0" d="M1.55 2.16l0 -0.47 0.62 0c-0.02,-0.02 0.02,-0.01 -0.03,-0.01l-0.6 0c-0.01,0.07 -0,0.28 -0,0.37 -0,0.07 -0.01,0.09 0.01,0.11z"/>
  </g>
 </g>
</svg>
